<?xml version="1.0" encoding="UTF-8"?>
<svg width="32px" height="32px" viewBox="0 0 32 32" version="1.1" xmlns="http://www.w3.org/2000/svg" xmlns:xlink="http://www.w3.org/1999/xlink">
    <!-- Generator: Sketch 54 (76480) - https://sketchapp.com -->
    <title>形状结合</title>
    <desc>Created with Sketch.</desc>
    <g id="0923修改" stroke="none" stroke-width="1" fill="none" fill-rule="evenodd">
        <g id="记录-分类-更多" transform="translate(-1800.000000, -960.000000)" fill="#FFFFFF">
            <g id="view/view_add2" transform="translate(1800.000000, 960.000000)">
                <path d="M14,14 L14,2 C14,0.8954305 14.8954305,4.11644229e-15 16,3.91353616e-15 C17.1045695,3.71063004e-15 18,0.8954305 18,2 L18,14 L30,14 C31.1045695,14 32,14.8954305 32,16 C32,17.1045695 31.1045695,18 30,18 L18,18 L18,30 C18,31.1045695 17.1045695,32 16,32 C14.8954305,32 14,31.1045695 14,30 L14,18 L2,18 C0.8954305,18 1.3527075e-16,17.1045695 0,16 C-1.3527075e-16,14.8954305 0.8954305,14 2,14 L14,14 Z" id="形状结合"></path>
            </g>
        </g>
    </g>
</svg>