<?xml version="1.0" encoding="UTF-8"?>
<svg width="24px" height="24px" viewBox="0 0 24 24" version="1.1" xmlns="http://www.w3.org/2000/svg" xmlns:xlink="http://www.w3.org/1999/xlink">
    <!-- Generator: Sketch 54 (76480) - https://sketchapp.com -->
    <title>icon_xx_four</title>
    <desc>Created with Sketch.</desc>
    <g id="icon_xx_four" stroke="none" stroke-width="1" fill="none" fill-rule="evenodd">
        <g id="编组-5" transform="translate(6.000000, 5.000000)">
            <g id="编组-4">
                <g id="编组-3" transform="translate(4.421053, 0.000000)" fill="#4BA2F3" fill-rule="nonzero">
                    <path d="M0.462267473,0.0229348261 C0.799193433,-0.0771534847 1.14917079,0.159659064 1.24396378,0.551870458 L4.24375129,13.0856777 C4.33854428,13.4778891 4.14225672,13.8769769 3.80533076,13.9770652 C3.4684048,14.0771535 3.11842744,13.8403409 3.02363445,13.4481295 L0.0238469492,0.914322294 C-0.0709460416,0.5221109 0.125341513,0.123023137 0.462267473,0.0229348261 Z M0.625732133,0.699279159 C0.632569249,0.697248104 0.627655733,0.707238163 0.633905366,0.733096376 L3.72338744,13.5160043 C3.72963707,13.5418625 3.73839779,13.5477904 3.73156067,13.5498215 C3.72472356,13.5518525 3.72963707,13.5418625 3.72338744,13.5160043 L0.633905366,0.733096376 C0.627655733,0.707238163 0.618895017,0.701310215 0.625732133,0.699279159 Z" id="形状"></path>
                    <path d="M6.9632255,0.0229348261 C7.30015146,0.123023137 7.49643901,0.5221109 7.40164602,0.914322294 L4.40185852,13.4481295 C4.30706553,13.8403409 3.95708817,14.0771535 3.62016221,13.9770652 C3.28323625,13.8769769 3.0869487,13.4778891 3.18174169,13.0856777 L6.18152919,0.551870458 C6.27632218,0.159659064 6.62629954,-0.0771534847 6.9632255,0.0229348261 Z M6.79976084,0.699279159 C6.79292372,0.697248104 6.79783724,0.707238163 6.79158761,0.733096376 L3.70210553,13.5160043 C3.6958559,13.5418625 3.68709518,13.5477904 3.6939323,13.5498215 C3.70076941,13.5518525 3.6958559,13.5418625 3.70210553,13.5160043 L6.79158761,0.733096376 C6.79783724,0.707238163 6.80659796,0.701310215 6.79976084,0.699279159 Z" id="形状"></path>
                </g>
                <g id="编组-3复制-2">
                    <g id="编组-2">
                        <g id="编组"></g>
                    </g>
                </g>
            </g>
            <path d="M1.26315789,12.7272727 L1.26315789,1.27272727 L0.315789474,1.27272727 C0.141383763,1.27272727 2.13585395e-17,1.13027242 0,0.954545455 L0,0.318181818 C-2.13585395e-17,0.142454852 0.141383763,3.22805199e-17 0.315789474,0 L3.47368421,0 C3.64808992,-3.22805199e-17 3.78947368,0.142454852 3.78947368,0.318181818 L3.78947368,0.954545455 C3.78947368,1.13027242 3.64808992,1.27272727 3.47368421,1.27272727 L2.52631579,1.27272727 L2.52631579,12.7272727 L3.47368421,12.7272727 C3.64808992,12.7272727 3.78947368,12.8697276 3.78947368,13.0454545 L3.78947368,13.6818182 C3.78947368,13.8575451 3.64808992,14 3.47368421,14 L0.315789474,14 C0.141383763,14 2.13585395e-17,13.8575451 0,13.6818182 L0,13.0454545 C-2.13585395e-17,12.8697276 0.141383763,12.7272727 0.315789474,12.7272727 L1.26315789,12.7272727 Z" id="路径" fill="#4BA2F3" fill-rule="nonzero"></path>
        </g>
    </g>
</svg>