<svg t="1676268596527" class="icon" viewBox="0 0 1084 1024" version="1.1" xmlns="http://www.w3.org/2000/svg" p-id="2854" width="200" height="200"><path d="M0 361.411765h240.941176v662.588235H0v-120.470588h120.470588V481.882353H0V361.411765z m625.543529-227.388236L444.958118 404.961882A172.815059 172.815059 0 0 1 301.176471 481.882353V361.411765c17.468235 0 33.852235-8.734118 43.550117-23.311059L570.127059 0H602.352941a147.094588 147.094588 0 0 1 139.504941 193.596235L685.899294 361.411765h262.987294a120.470588 120.470588 0 0 1 117.63953 146.612706l-72.764236 327.318588A240.941176 240.941176 0 0 1 758.543059 1024H301.176471v-120.470588h457.366588a120.470588 120.470588 0 0 0 117.639529-94.328471L948.886588 481.882353h-430.08l108.784941-326.415059a26.624 26.624 0 0 0-2.048-21.443765z" fill="#438cf1" p-id="2855"></path></svg>