<?xml version="1.0" encoding="UTF-8"?>
<svg width="24px" height="24px" viewBox="0 0 24 24" version="1.1" xmlns="http://www.w3.org/2000/svg" xmlns:xlink="http://www.w3.org/1999/xlink">
    <!-- Generator: Sketch 54 (76480) - https://sketchapp.com -->
    <title>icon_xx_first</title>
    <desc>Created with Sketch.</desc>
    <g id="icon_xx_first" stroke="none" stroke-width="1" fill="none" fill-rule="evenodd">
        <g id="编组-2" transform="translate(10.000000, 5.000000)" fill="#E95157">
            <g id="编组">
                <path d="M1.44057623,12.9651861 L1.44057623,1.44057623 L0.378151261,1.44057623 C0.169304086,1.44057623 -2.99347489e-17,1.27127214 -5.55111512e-17,1.06242497 L0,0.378151261 C-2.55764024e-17,0.169304086 0.169304086,3.83646035e-17 0.378151261,0 L3.94357743,0 C4.15242461,-3.83646035e-17 4.32172869,0.169304086 4.32172869,0.378151261 L4.32172869,1.06242497 C4.32172869,1.27127214 4.15242461,1.44057623 3.94357743,1.44057623 L2.88115246,1.44057623 L2.88115246,12.9651861 L3.94357743,12.9651861 C4.15242461,12.9651861 4.32172869,13.1344902 4.32172869,13.3433373 L4.32172869,14.027611 C4.32172869,14.2364582 4.15242461,14.4057623 3.94357743,14.4057623 L0.378151261,14.4057623 C0.169304086,14.4057623 -2.99347489e-17,14.2364582 -5.55111512e-17,14.027611 L0,13.3433373 C-2.55764024e-17,13.1344902 0.169304086,12.9651861 0.378151261,12.9651861 L1.44057623,12.9651861 Z" id="形状结合"></path>
            </g>
        </g>
    </g>
</svg>