<svg t="1675848860046" class="icon" viewBox="0 0 1024 1024" version="1.1" xmlns="http://www.w3.org/2000/svg" p-id="2410" width="200" height="200"><path d="M512 128C299.92 128 128 299.92 128 512s171.92 384 384 384 384-171.92 384-384S724.08 128 512 128zM732.624 392.4 472.4 652.624c-9.36 9.376-24.56 9.376-33.936 0l-147.072-147.088c-9.376-9.376-9.376-24.576 0-33.936 9.376-9.376 24.576-9.376 33.936 0l130.112 130.112 243.264-243.264c9.36-9.376 24.56-9.376 33.936 0S742 383.024 732.624 392.4z" p-id="2411" fill="#438cf1"></path></svg>