<?xml version="1.0" encoding="UTF-8"?>
<svg width="24px" height="24px" viewBox="0 0 24 24" version="1.1" xmlns="http://www.w3.org/2000/svg" xmlns:xlink="http://www.w3.org/1999/xlink">
    <!-- Generator: Sketch 54 (76480) - https://sketchapp.com -->
    <title>icon_xx_three</title>
    <desc>Created with Sketch.</desc>
    <g id="icon_xx_three" stroke="none" stroke-width="1" fill="none" fill-rule="evenodd">
        <path d="M8.42857143,18.6363636 L8.42857143,6.36363636 L7.34090909,6.36363636 C7.1526302,6.36363636 7,6.21100616 7,6.02272727 L7,5.34090909 C7,5.1526302 7.1526302,5 7.34090909,5 L16.6590909,5 C16.8473698,5 17,5.1526302 17,5.34090909 L17,6.02272727 C17,6.21100616 16.8473698,6.36363636 16.6590909,6.36363636 L15.5714286,6.36363636 L15.5714286,18.6363636 L16.6590909,18.6363636 C16.8473698,18.6363636 17,18.7889938 17,18.9772727 L17,19.6590909 C17,19.8473698 16.8473698,20 16.6590909,20 L7.34090909,20 C7.1526302,20 7,19.8473698 7,19.6590909 L7,18.9772727 C7,18.7889938 7.1526302,18.6363636 7.34090909,18.6363636 L8.42857143,18.6363636 Z M9.85714286,18.6363636 L11.2857143,18.6363636 L11.2857143,6.36363636 L9.85714286,6.36363636 L9.85714286,18.6363636 Z M12.7142857,18.6363636 L14.1428571,18.6363636 L14.1428571,6.36363636 L12.7142857,6.36363636 L12.7142857,18.6363636 Z" id="形状结合" fill="#3BC38C"></path>
    </g>
</svg>