<?xml version="1.0" encoding="UTF-8"?>
<svg width="24px" height="24px" viewBox="0 0 24 24" version="1.1" xmlns="http://www.w3.org/2000/svg" xmlns:xlink="http://www.w3.org/1999/xlink">
    <!-- Generator: Sketch 54 (76480) - https://sketchapp.com -->
    <title>icon_xx_two</title>
    <desc>Created with Sketch.</desc>
    <g id="icon_xx_two" stroke="none" stroke-width="1" fill="none" fill-rule="evenodd">
        <path d="M12.2590909,5 L14.6590909,5 C14.8473698,5 15,5.1526302 15,5.34090909 L15,6.02272727 C15,6.21100616 14.8473698,6.36363636 14.6590909,6.36363636 L13.8,6.36363636 L13.8,18.6363636 L14.6590909,18.6363636 C14.8473698,18.6363636 15,18.7889938 15,18.9772727 L15,19.6590909 C15,19.8473698 14.8473698,20 14.6590909,20 L12.2590909,20 L9.34090909,20 C9.1526302,20 9,19.8473698 9,19.6590909 L9,18.9772727 C9,18.7889938 9.1526302,18.6363636 9.34090909,18.6363636 L10.2,18.6363636 L10.2,6.36363636 L9.34090909,6.36363636 C9.1526302,6.36363636 9,6.21100616 9,6.02272727 L9,5.34090909 C9,5.1526302 9.1526302,5 9.34090909,5 L12.2590909,5 Z M12.2590909,6.36363636 L11.4,6.36363636 L11.4,18.6363636 L12.2590909,18.6363636 L12.6,18.6363636 L12.6,6.36363636 L12.2590909,6.36363636 Z" id="形状结合" fill="#FFA523"></path>
    </g>
</svg>